<?xml version="1.0" encoding="UTF-8"?>
<!DOCTYPE svg PUBLIC "-//W3C//DTD SVG 1.1//EN" "http://www.w3.org/Graphics/SVG/1.1/DTD/svg11.dtd">
<!-- Creator: CorelDRAW 2020 (64 Bit) -->
<svg xmlns="http://www.w3.org/2000/svg" xml:space="preserve" width="23.0454mm" height="18.4297mm" version="1.1" style="shape-rendering:geometricPrecision; text-rendering:geometricPrecision; image-rendering:optimizeQuality; fill-rule:evenodd; clip-rule:evenodd"
viewBox="0 0 976.13 780.63"
 xmlns:xlink="http://www.w3.org/1999/xlink"
 xmlns:xodm="http://www.corel.com/coreldraw/odm/2003">
 <defs>
  <style type="text/css">
   <![CDATA[
    .fil1 {fill:#454545}
    .fil0 {fill:#C9C9C9}
    .fil2 {fill:#E67586}
   ]]>
  </style>
 </defs>
 <g id="Camada_x0020_1">
  <metadata id="CorelCorpID_0Corel-Layer"/>
  <g id="_1881007075056">
   <path class="fil0" d="M387.13 586.39c36.37,-17.08 84.74,-86.84 113.1,-119.95 26.19,-30.57 123.41,-151.75 146.36,-166.4 46.72,-29.81 90.96,35.9 120.56,67.88 18.92,20.45 87.18,106.31 108.96,54.58 10.74,-25.5 22.14,-166 27.29,-205.86 4.85,-37.57 27.45,-154.41 17.82,-182.7 -14.82,-43.5 -111.45,-29.09 -150.53,-28.49 -95.64,1.46 -189.26,-4.05 -284.16,-5.4 -194.91,-2.78 80.18,112.71 74.54,191.37 -2.77,38.53 -83.05,113.74 -111.57,145.79 -35.83,40.26 -73,78.93 -108.36,118.54 -38.69,43.36 -49.74,85.43 6.53,121.25 13.81,8.79 23.62,12.78 39.46,9.39z"/>
   <path class="fil1" d="M685.3 361c49.97,45.88 98.59,91.94 148.11,138.07 77.81,72.49 77.62,11.33 86.47,-63.95 4.77,-39.81 51.12,-385.3 55.95,-393.67 1.94,5.04 -6.08,509.13 -5.92,566.14 0.05,17.66 0.16,35.31 0.3,52.97 0.16,18.98 7.57,117.65 -30.23,101.07 -26.13,-11.46 -157.81,-158.14 -189.45,-190.61 -41.92,-43.03 -83.78,-86.1 -125.65,-129.17l60.43 -80.86z"/>
   <path class="fil2" d="M709.69 402.42c-12.28,43.67 -80.34,110.89 -111.91,148.39 -49.26,58.5 -94.6,114.45 -141.96,174.46 -72.85,92.29 -92.49,57.58 -163.08,-19.55 -29.49,-32.23 -119.74,-114 -130.64,-147.37 -15.21,-46.56 55.62,-100.51 86.42,-132.37 47.81,-49.46 93.92,-99.26 142.21,-148.77 39.23,-40.21 53.66,-74.24 3.47,-114.78 -65.22,-52.68 -120.49,30.88 -162.96,75.34 -41.75,43.7 -84.24,87.74 -126.19,131.3 -19.76,20.51 -75.34,72.16 -100.2,29.47 -27.23,-46.75 67.8,-119.46 98.47,-149.89 54.52,-54.11 104.97,-106.6 157.61,-162.44 86.21,-91.44 107.96,-45.63 187.66,29.9 96.12,91.08 83.58,87.49 -7.58,185.04 -48.71,52.12 -95.34,106.6 -144,159.29 -50.76,54.95 -42.64,83.57 9.62,137.35 93.6,96.34 135.42,12.36 199.55,-64.96 27.74,-33.45 119.76,-149.49 147.68,-167.52 32.86,-21.23 59.17,2.39 55.84,37.13z"/>
  </g>
 </g>
</svg>
